# xmcd CD database file
#
# Track frame offsets:
#	150
#	21107
#	28030
#	40750
#	49753
#	60605
#	71876
#	83320
#	92465
#	103090
#	112109
#	124680
#	133865
#	141749
#	151080
#	159731
#	172074
#	182540
#
# Disc length: 2787 seconds
#
# Revision: 0
# Processed by: cddbd v1.5PL3 Copyright (c) Steve Scherf et al.
# Submitted via: CDex 1.51
#
DISCID=f60ae112
DTITLE=The Hook - Orange Poket オレンジ　ポケット　アレンジ
DYEAR=2004
DGENRE=サウンドトラック (一般/日本)
TTITLE0=Orange Pocket モーニングコールアレンジ
TTITLE1=平穏な朝 カーテンを開けたらアレンジ
TTITLE2=美典のテーマ 朝食なのです?アレンジ
TTITLE3=すたあ ミネラルシーケンスアレンジ
TTITLE4=ばんびっく ちょっとそこまでアレンジ
TTITLE5=ナズナのテーマ 猫と散歩アレンジ
TTITLE6=てんやわんや とりあえずダッシュだアレンジ
TTITLE7=恵留のテーマ まってよお兄ちゃんアレンジ
TTITLE8=けだるい午後 賑やかすぎる昼食アレンジ
TTITLE9=ある晴れた日 一方そのころアレンジ
TTITLE10=咲乃のテーマ 図書館の隅で…アレンジ
TTITLE11=円のテーマ し・あ・わ・せ・スマッシュアレンジ
TTITLE12=ユーキのテーマ 隠しコマンドアレンジ
TTITLE13=柊のテーマ 手加減は致しませんアレンジ
TTITLE14=羽弥のテーマ フザケルナアレンジ
TTITLE15=桐子のテーマ だってチョコだもんアレンジ
TTITLE16=夕日の跡 橙色の帰り道アレンジ
TTITLE17=はるおと ベソめ?ナイトアレンジ
EXTD=YEAR: 2004
EXTT0=
EXTT1=
EXTT2=
EXTT3=
EXTT4=
EXTT5=
EXTT6=
EXTT7=
EXTT8=
EXTT9=
EXTT10=
EXTT11=
EXTT12=
EXTT13=
EXTT14=
EXTT15=
EXTT16=
EXTT17=
PLAYORDER=
